<svg width="18" height="18" viewBox="0 0 18 18" fill="none" xmlns="http://www.w3.org/2000/svg">
<g id="Category">
<path id="Category_2" fill-rule="evenodd" clip-rule="evenodd" d="M5.67786 0.666668H3.14641C1.7757 0.666668 0.666626 1.78537 0.666626 3.16293V5.71636C0.666626 7.09336 1.77594 8.21263 3.14641 8.21263H5.67786C7.04833 8.21263 8.15764 7.09336 8.15764 5.71636V3.16293C8.15764 1.78537 7.04857 0.666668 5.67786 0.666668ZM3.14641 1.82946H5.67786C6.40411 1.82946 6.99485 2.42532 6.99485 3.16293V5.71636C6.99485 6.45348 6.4038 7.04983 5.67786 7.04983H3.14641C2.42047 7.04983 1.82942 6.45348 1.82942 5.71636V3.16293C1.82942 2.42532 2.42015 1.82946 3.14641 1.82946ZM14.8543 0.666668H12.3221C10.9514 0.666668 9.84227 1.78537 9.84227 3.16293V5.71636C9.84227 7.09336 10.9516 8.21263 12.3221 8.21263H14.8543C16.2241 8.21263 17.3333 7.0932 17.3333 5.71636V3.16293C17.3333 1.78553 16.2244 0.666668 14.8543 0.666668ZM12.3221 1.82946H14.8543C15.5798 1.82946 16.1705 2.42541 16.1705 3.16293V5.71636C16.1705 6.4534 15.5795 7.04983 14.8543 7.04983H12.3221C11.5961 7.04983 11.0051 6.45348 11.0051 5.71636V3.16293C11.0051 2.42532 11.5958 1.82946 12.3221 1.82946ZM3.14641 9.78738H5.67786C7.04873 9.78738 8.15764 10.9062 8.15764 12.2844V14.8371C8.15764 16.2146 7.04857 17.3333 5.67786 17.3333H3.14641C1.7757 17.3333 0.666626 16.2146 0.666626 14.8371V12.2844C0.666626 10.9062 1.77554 9.78738 3.14641 9.78738ZM5.67786 10.9502H3.14641C2.42007 10.9502 1.82942 11.5461 1.82942 12.2844V14.8371C1.82942 15.5747 2.42015 16.1705 3.14641 16.1705H5.67786C6.40411 16.1705 6.99485 15.5747 6.99485 14.8371V12.2844C6.99485 11.5461 6.4042 10.9502 5.67786 10.9502ZM14.8543 9.78738H12.3221C10.9512 9.78738 9.84227 10.9062 9.84227 12.2844V14.8371C9.84227 16.2146 10.9514 17.3333 12.3221 17.3333H14.8543C16.2244 17.3333 17.3333 16.2145 17.3333 14.8371V12.2844C17.3333 10.9064 16.2245 9.78738 14.8543 9.78738ZM12.3221 10.9502H14.8543C15.5799 10.9502 16.1705 11.5462 16.1705 12.2844V14.8371C16.1705 15.5746 15.5798 16.1705 14.8543 16.1705H12.3221C11.5958 16.1705 11.0051 15.5747 11.0051 14.8371V12.2844C11.0051 11.5461 11.5957 10.9502 12.3221 10.9502Z" fill="#777E90"/>
</g>
</svg>
