<svg width="18" height="18" viewBox="0 0 18 18" fill="none" xmlns="http://www.w3.org/2000/svg">
<g id="Activity">
<path id="Activity_2" fill-rule="evenodd" clip-rule="evenodd" d="M13.0176 2.81781C13.0176 1.62977 13.9837 0.666667 15.1754 0.666667C16.3672 0.666667 17.3332 1.62977 17.3332 2.81781C17.3332 4.00586 16.3672 4.96896 15.1754 4.96896C13.9837 4.96896 13.0176 4.00586 13.0176 2.81781ZM16.122 2.81781C16.122 2.29666 15.6982 1.87418 15.1755 1.87418C14.6527 1.87418 14.2289 2.29666 14.2289 2.81781C14.2289 3.33896 14.6527 3.76144 15.1755 3.76144C15.6982 3.76144 16.122 3.33896 16.122 2.81781ZM11.9397 6.95019C12.1446 6.6866 12.525 6.63849 12.7894 6.84272C13.0298 7.02838 13.0915 7.35868 12.9468 7.61523L12.8972 7.68977L10.532 10.733C10.3449 10.9737 10.0115 11.0345 9.75391 10.8881L9.67912 10.838L7.40285 9.05566L5.35926 11.704C5.17383 11.9442 4.84272 12.0069 4.58488 11.8635L4.50995 11.8143C4.26895 11.6295 4.20609 11.2994 4.3499 11.0424L4.39927 10.9676L6.81625 7.83603C7.00299 7.59407 7.33715 7.53248 7.59539 7.67914L7.67036 7.72941L9.94731 9.5129L11.9397 6.95019ZM11.6863 1.94833C11.6863 1.61489 11.4151 1.34458 11.0806 1.34458H5.21187L5.02273 1.34773C2.39596 1.4357 0.666626 3.35886 0.666626 6.08944V12.5958L0.669523 12.7901C0.750482 15.4898 2.52237 17.3333 5.21187 17.3333H12.1598L12.349 17.3302C14.9767 17.2425 16.705 15.3251 16.705 12.5958V6.92945L16.6995 6.84753C16.6594 6.55283 16.406 6.32569 16.0994 6.32569C15.7649 6.32569 15.4938 6.59601 15.4938 6.92945V12.5958L15.4904 12.7832C15.4172 14.8224 14.1437 16.1258 12.1598 16.1258H5.21187L5.03196 16.1223C3.07581 16.0445 1.87789 14.6909 1.87789 12.5958V6.08944L1.88123 5.90187C1.95452 3.86065 3.22968 2.55209 5.21187 2.55209H11.0806L11.1628 2.54658C11.4584 2.5066 11.6863 2.25399 11.6863 1.94833Z" fill="#777E90"/>
</g>
</svg>
